{"title":"Haunting of Cellblock 11 2014 1080p BluRay","uid":12516596,"size":7030359706,"categoryP":"video","categoryS":"hd___movies","magnet":"?xt=urn:btih:14aa9989328fea11285035802a2e24102c2b542d&amp;dn=Haunting+of+Cellblock+11+2014+1080p+BluRay&amp;tr=udp%3A%2F%2Ftracker.leechers-paradise.org%3A6969&amp;tr=udp%3A%2F%2Fzer0day.ch%3A1337&amp;tr=udp%3A%2F%2Fopen.demonii.com%3A1337&amp;tr=udp%3A%2F%2Ftracker.coppersurfer.tk%3A6969&amp;tr=udp%3A%2F%2Fexodus.desync.com%3A6969","seeders":0,"leechers":0,"uploader":"Joker__TPB","files":3,"time":1443780056,"description":"\nVideo\r\nID                                       : 1\r\nFormat                                   : AVC\r\nFormat/Info                              : Advanced Video Codec\r\nFormat profile                           :   \r\nFormat settings, CABAC                   : Yes\r\nFormat settings, ReFrames                : 4 frames\r\nCodec ID                                 : V_MPEG4/ISO/AVC\r\nDuration                                 : 1h 24mn\r\nBit rate                                 : 9 577 Kbps\r\nWidth                                    : 1 920 pixels\r\nHeight                                   : 1 080 pixels\r\nDisplay aspect ratio                     : 16:9\r\nFrame rate mode                          : Constant\r\nFrame rate                               : 23.976 fps\r\nColor space                              : YUV\r\nChroma subsampling                       : 4:2:0\r\nBit depth                                : 8 bits\r\nScan type                                : Progressive\r\nBits/(Pixel*Frame)                       : 0.193\r\nStream size                              : 5.53 GiB (84%)\r\nWriting library                          : x264 core 148 r2597 e86f3a1\r\nEncoding settings                        : cabac=1 / ref=4 / deblock=1:0:0 / analyse=0x3:0x113 / me=umh / subme=8 / psy=1 / psy_rd=1.00:0.00 / mixed_ref=1 / me_range=16 / chroma_me=1 / trellis=1 / 8x8dct=1 / cqm=0 / deadzone=21,11 / fast_pskip=0 / chroma_qp_offset=-2 / threads=12 / lookahead_threads=2 / sliced_threads=0 / nr=0 / decimate=1 / interlaced=0 / bluray_compat=0 / constrained_intra=0 / bframes=3 / b_pyramid=2 / b_adapt=2 / b_bias=0 / direct=3 / weightb=1 / open_gop=0 / weightp=2 / keyint=250 / keyint_min=23 / scenecut=40 / intra_refresh=0 / rc_lookahead=50 / rc=2pass / mbtree=1 / bitrate=9577 / ratetol=1.0 / qcomp=0.60 / qpmin=0 / qpmax=69 / qpstep=4 / cplxblur=20.0 / qblur=0.5 / ip_ratio=1.40 / aq=1:1.00\r\nLanguage                                 : English\r\nDefault                                  : Yes\r\nForced                                   : No\r\nDURATION                                 : 01:24:35.487000000\r\nNUMBER_OF_FRAMES                         : 121690\r\nNUMBER_OF_BYTES                          : 6071525803\r\n_STATISTICS_WRITING_APP                  : mkvmerge v8.1.0 ('Psychedelic Postcard') 64bit\r\n_STATISTICS_WRITING_DATE_UTC             : 2015-10-02 04:48:09\r\n_STATISTICS_TAGS                         : BPS DURATION NUMBER_OF_FRAMES NUMBER_OF_BYTES\r\n\r\nAudio\r\nID                                       : 2\r\nFormat                                   : DTS\r\nFormat/Info                              : Digital Theater Systems\r\nMode                                     : 16\r\nFormat settings, Endianness              : Big\r\nCodec ID                                 : A_DTS\r\nDuration                                 : 1h 24mn\r\nBit rate mode                            : Constant\r\nBit rate                                 : 1 509 Kbps\r\nChannel(s)                               : 6 channels\r\nChannel positions                        : Front: L C R, Side: L R, LFE\r\nSampling rate                            : 48.0 KHz\r\nBit depth                                : 24 bits\r\nCompression mode                         : Lossy\r\nStream size                              : 913 MiB (14%)\r\nLanguage                                 : English\r\nDefault                                  : Yes\r\nForced                                   : No\r\n\r\nMenu\r\n00:00:00.000                             : en:00:00:00.000\r\n00:01:45.731                             : en:00:01:45.731\r\n00:10:54.988                             : en:00:10:54.988\r\n00:20:54.503                             : en:00:20:54.503\r\n00:25:22.062                             : en:00:25:22.062\r\n00:31:58.875                             : en:00:31:58.875\r\n00:39:29.075                             : en:00:39:29.075\r\n00:46:52.727                             : en:00:46:52.727\r\n00:54:50.621                             : en:00:54:50.621\r\n01:04:18.897                             : en:01:04:18.897\r\n01:12:14.747                             : en:01:12:14.747\r\n01:21:32.554                             : en:01:21:32.554","torrent":{"xt":"urn:btih:14aa9989328fea11285035802a2e24102c2b542d","amp;dn":"Haunting+of+Cellblock+11+2014+1080p+BluRay","amp;tr":["udp%3A%2F%2Ftracker.leechers-paradise.org%3A6969","udp%3A%2F%2Fzer0day.ch%3A1337","udp%3A%2F%2Fopen.demonii.com%3A1337","udp%3A%2F%2Ftracker.coppersurfer.tk%3A6969","udp%3A%2F%2Fexodus.desync.com%3A6969"],"infoHash":"14aa9989328fea11285035802a2e24102c2b542d","infoHashBuffer":{"type":"Buffer","data":[20,170,153,137,50,143,234,17,40,80,53,128,42,46,36,16,44,43,84,45]},"announce":[],"urlList":[]}}